<?xml version="1.0" encoding="UTF-8" standalone="no"?>
<svg width="149px" height="131px" viewBox="0 0 149 131" version="1.1" xmlns="http://www.w3.org/2000/svg" xmlns:xlink="http://www.w3.org/1999/xlink">
    <!-- Generator: Sketch 39.1 (31720) - http://www.bohemiancoding.com/sketch -->
    <title>Group</title>
    <desc>Created with Sketch.</desc>
    <defs></defs>
    <g id="Page-2" stroke="none" stroke-width="1" fill="none" fill-rule="evenodd">
        <g id="Group" fill="#000000">
            <path d="M117.125085,130.240539 L119.938659,130.773403 L120.944418,128.08925 L148.083165,55.6617625 L148.757273,53.8627122 L147.568459,52.3542385 L107.85776,1.96573118 L106.319222,0.013496307 L103.992922,0.88502018 L2.75141374,38.8140796 L0.286299479,39.7376086 L0.559022758,42.3585427 L7.28153517,106.96345 L7.54411715,109.486924 L10.0341365,109.958511 L117.125085,130.240539 Z M14.0520016,106.257304 L7.32948918,41.6523959 L5.1370982,45.196859 L106.378606,7.26779959 L102.513768,6.18708859 L142.224468,56.5755959 L141.709762,53.2680718 L114.571015,125.69556 L118.390348,123.544271 L11.2994003,103.262243 L14.0520016,106.257304 Z" id="Rectangle-9"></path>
            <path d="M40.0645458,78.7065218 C40.0645458,75.4568696 41.1349778,72.8871478 43.2758737,70.9972792 C45.4167697,69.1074105 48.1216245,68.0242094 51.3905194,67.7476433 L61.1971551,66.745096 C62.5553579,66.6068129 63.2459591,66.0652124 63.2689795,65.1202781 L63.2689795,64.3251544 C63.2689795,62.9653709 62.6877235,61.8475995 61.525194,60.9718067 C60.3626644,60.0960139 58.6073863,59.6581241 56.2593069,59.6581241 C54.0953905,59.6581241 52.1847271,60.0729671 50.5272592,60.9026655 C48.8697914,61.7323639 47.7878495,63.1382207 47.281401,65.1202781 L41.1349885,61.2138009 C42.0327835,58.5633753 43.7132466,56.4833987 46.1764279,54.9738085 C48.6396093,53.4642183 51.9544952,52.7094346 56.1211852,52.7094346 C61.1166091,52.7094346 64.8285908,53.8675379 67.2572416,56.1837793 C69.6858924,58.5000208 70.9001995,61.9512839 70.9001995,66.5376725 L70.9001995,88.9739884 L63.2689795,88.9739884 L63.2689795,84.0995346 C62.1870214,85.7589314 60.7137387,87.1014094 58.8490874,88.1270089 C56.9844361,89.1526083 54.705452,89.6654003 52.0120668,89.6654003 C50.1704358,89.6654003 48.5072378,89.3946001 47.0224229,88.8529914 C45.537608,88.3113827 44.2887707,87.5565989 43.2758737,86.5886174 C42.2629767,85.6206359 41.4745403,84.4682943 40.9105408,83.1315579 C40.3465413,81.7948216 40.0645458,80.3198243 40.0645458,78.7065218 L40.0645458,78.7065218 Z M47.9720091,78.4990982 C47.9720091,79.8588818 48.45543,80.9536063 49.4222862,81.7833047 C50.3891425,82.6130032 51.8394051,83.0278461 53.7731175,83.0278461 C55.2234019,83.0278461 56.5412993,82.7916161 57.7268492,82.319149 C58.9123991,81.8466818 59.9080159,81.2186556 60.7137294,80.4350515 C61.5194429,79.6514475 62.1467391,78.752621 62.5956366,77.7385451 C63.0445341,76.7244693 63.2689795,75.6988852 63.2689795,74.6617622 L63.2689795,72.6220971 L53.0825094,73.9012091 C51.33296,74.1316809 50.0438377,74.6617581 49.2151038,75.4914565 C48.3863699,76.3211549 47.9720091,77.3236921 47.9720091,78.4990982 L47.9720091,78.4990982 Z M78.8989855,56.4776294 L96.0951283,39.3997556 L103.173862,39.3997556 L103.173862,88.9739884 L95.0937465,88.9739884 L95.0937465,51.6723167 L84.4929115,62.2163481 L78.8989855,56.4776294 Z" id="a1"></path>
        </g>
    </g>
</svg>