<?xml version="1.0" encoding="UTF-8" standalone="no"?>
<svg width="711px" height="47px" viewBox="0 0 711 47" version="1.1" xmlns="http://www.w3.org/2000/svg" xmlns:xlink="http://www.w3.org/1999/xlink">
    <!-- Generator: Sketch 39.1 (31720) - http://www.bohemiancoding.com/sketch -->
    <title>title</title>
    <desc>Created with Sketch.</desc>
    <defs></defs>
    <g id="Page-2" stroke="none" stroke-width="1" fill="none" fill-rule="evenodd">
        <path d="M1.12089401,28.7490234 C1.12089401,26.4540901 1.87772238,24.6393296 3.39140183,23.3046875 C4.90508127,21.9700454 6.81749704,21.2050791 9.12870651,21.0097656 L16.0623003,20.3017578 C17.0225915,20.2041011 17.5108679,19.8216179 17.527144,19.1542969 L17.527144,18.5927734 C17.527144,17.6324822 17.1161781,16.8431021 16.2942339,16.2246094 C15.4722896,15.6061167 14.2312539,15.296875 12.5710893,15.296875 C11.0411338,15.296875 9.69023581,15.5898408 8.51835495,16.1757812 C7.34647409,16.7617217 6.58150778,17.7545503 6.22343308,19.1542969 L1.87772995,16.3955078 C2.51249875,14.5237537 3.70063791,13.0548556 5.44218308,11.9887695 C7.18372824,10.9226835 9.52745481,10.3896484 12.4734331,10.3896484 C16.0053518,10.3896484 18.6298373,11.2075114 20.3469682,12.8432617 C22.0640992,14.4790121 22.9226518,16.916325 22.9226518,20.1552734 L22.9226518,36 L17.527144,36 L17.527144,32.5576172 C16.7621662,33.729498 15.72051,34.677568 14.402144,35.4018555 C13.083778,36.1261429 11.472466,36.4882812 9.56815964,36.4882812 C8.2660698,36.4882812 7.09013755,36.2970397 6.04032761,35.9145508 C4.99051767,35.5320619 4.10755124,34.9990269 3.39140183,34.3154297 C2.67525241,33.6318325 2.11780356,32.8180386 1.71903855,31.8740234 C1.32027353,30.9300083 1.12089401,29.8883521 1.12089401,28.7490234 L1.12089401,28.7490234 Z M6.71171433,28.6025391 C6.71171433,29.5628303 7.05350778,30.3359346 7.73710495,30.921875 C8.42070212,31.5078154 9.44608249,31.8007812 10.8132768,31.8007812 C11.8386726,31.8007812 12.7704666,31.6339535 13.608687,31.300293 C14.4469073,30.9666324 15.1508391,30.5231147 15.7205034,29.9697266 C16.2901677,29.4163384 16.7336854,28.7815791 17.0510698,28.0654297 C17.3684542,27.3492803 17.527144,26.6250037 17.527144,25.8925781 L17.527144,24.4521484 L10.3249956,25.3554688 C9.08801023,25.51823 8.17656101,25.8925752 7.59062058,26.4785156 C7.00468015,27.0644561 6.71171433,27.7724568 6.71171433,28.6025391 L6.71171433,28.6025391 Z M43.510772,15.5898438 L43.510772,11 L48.2959283,11 L48.2959283,9.65722656 C48.2959283,8.02961426 48.5115837,6.62988867 48.942901,5.45800781 C49.3742182,4.28612695 49.9682878,3.33398804 50.7251275,2.6015625 C51.4819672,1.86913696 52.3852785,1.33610193 53.4350885,1.00244141 C54.4848984,0.668780884 55.6201409,0.501953125 56.8408502,0.501953125 C57.6383802,0.501953125 58.3830017,0.542642822 59.0747369,0.624023438 C59.7664721,0.705404053 60.4785418,0.794921387 61.2109674,0.892578125 L61.2109674,5.89746094 C60.5110941,5.76725195 59.8844727,5.66959668 59.3310845,5.60449219 C58.7776964,5.5393877 58.2324544,5.50683594 57.6953424,5.50683594 C56.2304913,5.50683594 55.196973,5.84862939 54.5947564,6.53222656 C53.9925399,7.21582373 53.6914361,8.37141113 53.6914361,9.99902344 L53.6914361,11 L60.8935845,11 L60.8935845,15.5898438 L53.6914361,15.5898438 L53.6914361,36 L48.2959283,36 L48.2959283,15.5898438 L43.510772,15.5898438 Z M64.6202618,28.7490234 C64.6202618,26.4540901 65.3770902,24.6393296 66.8907697,23.3046875 C68.4044491,21.9700454 70.3168649,21.2050791 72.6280743,21.0097656 L79.5616681,20.3017578 C80.5219594,20.2041011 81.0102357,19.8216179 81.0265118,19.1542969 L81.0265118,18.5927734 C81.0265118,17.6324822 80.6155459,16.8431021 79.7936017,16.2246094 C78.9716575,15.6061167 77.7306217,15.296875 76.0704572,15.296875 C74.5405016,15.296875 73.1896036,15.5898408 72.0177228,16.1757812 C70.8458419,16.7617217 70.0808756,17.7545503 69.7228009,19.1542969 L65.3770978,16.3955078 C66.0118666,14.5237537 67.2000057,13.0548556 68.9415509,11.9887695 C70.6830961,10.9226835 73.0268226,10.3896484 75.9728009,10.3896484 C79.5047196,10.3896484 82.1292051,11.2075114 83.8463361,12.8432617 C85.563467,14.4790121 86.4220197,16.916325 86.4220197,20.1552734 L86.4220197,36 L81.0265118,36 L81.0265118,32.5576172 C80.2615341,33.729498 79.2198778,34.677568 77.9015118,35.4018555 C76.5831459,36.1261429 74.9718339,36.4882812 73.0675275,36.4882812 C71.7654376,36.4882812 70.5895054,36.2970397 69.5396954,35.9145508 C68.4898855,35.5320619 67.6069191,34.9990269 66.8907697,34.3154297 C66.1746202,33.6318325 65.6171714,32.8180386 65.2184064,31.8740234 C64.8196414,30.9300083 64.6202618,29.8883521 64.6202618,28.7490234 L64.6202618,28.7490234 Z M70.2110822,28.6025391 C70.2110822,29.5628303 70.5528756,30.3359346 71.2364728,30.921875 C71.92007,31.5078154 72.9454503,31.8007812 74.3126447,31.8007812 C75.3380404,31.8007812 76.2698345,31.6339535 77.1080548,31.300293 C77.9462752,30.9666324 78.6502069,30.5231147 79.2198712,29.9697266 C79.7895355,29.4163384 80.2330532,28.7815791 80.5504376,28.0654297 C80.867822,27.3492803 81.0265118,26.6250037 81.0265118,25.8925781 L81.0265118,24.4521484 L73.8243634,25.3554688 C72.5873781,25.51823 71.6759288,25.8925752 71.0899884,26.4785156 C70.504048,27.0644561 70.2110822,27.7724568 70.2110822,28.6025391 L70.2110822,28.6025391 Z M91.6867829,31.5566406 L95.3977204,27.9921875 C96.1626982,29.2942773 97.2369062,30.2382783 98.6203766,30.8242188 C100.003847,31.4101592 101.509366,31.703125 103.136978,31.703125 C104.406516,31.703125 105.440034,31.4956075 106.237564,31.0805664 C107.035094,30.6655253 107.433853,29.9697314 107.433853,28.9931641 C107.433853,28.0328728 106.986267,27.3614928 106.09108,26.9790039 C105.195893,26.596515 103.796167,26.201825 101.891861,25.7949219 C100.93157,25.5996084 99.9224653,25.3432633 98.8645173,25.0258789 C97.8065693,24.7084945 96.8462924,24.2649768 95.9836579,23.6953125 C95.1210234,23.1256482 94.4130226,22.3850957 93.8596345,21.4736328 C93.3062463,20.5621699 93.0295563,19.4228584 93.0295563,18.0556641 C93.0295563,15.6956262 93.8962469,13.8279691 95.629654,12.4526367 C97.3630611,11.0773043 99.800374,10.3896484 102.941666,10.3896484 C105.334256,10.3896484 107.33212,10.8006144 108.935318,11.6225586 C110.538516,12.4445028 111.852793,13.5553315 112.878189,14.9550781 L109.240494,18.4462891 C108.638277,17.5511023 107.779725,16.8105498 106.66481,16.2246094 C105.549896,15.6386689 104.211205,15.3457031 102.648697,15.3457031 C101.411712,15.3457031 100.418883,15.5613585 99.6701813,15.9926758 C98.9214797,16.423993 98.5471345,17.0302695 98.5471345,17.8115234 C98.5471345,18.7392625 99.0394798,19.3862286 100.024185,19.7524414 C101.008891,20.1186542 102.477789,20.5214822 104.430924,20.9609375 C105.505148,21.1888032 106.550873,21.4614242 107.568131,21.7788086 C108.585388,22.096193 109.492768,22.5356417 110.290299,23.097168 C111.087829,23.6586942 111.730726,24.3829708 112.219009,25.2700195 C112.707293,26.1570682 112.951431,27.2841729 112.951431,28.6513672 C112.951431,30.0185615 112.699155,31.2026317 112.194595,32.2036133 C111.690036,33.2045948 110.998311,34.0305957 110.1194,34.6816406 C109.240489,35.3326855 108.174419,35.8168929 106.921158,36.1342773 C105.667896,36.4516617 104.292585,36.6103516 102.795181,36.6103516 C100.402591,36.6103516 98.2216235,36.2075236 96.2522126,35.4018555 C94.2828017,34.5961874 92.761007,33.3144619 91.6867829,31.5566406 L91.6867829,31.5566406 Z M116.26307,15.5898438 L116.26307,11 L120.999398,11 L120.999398,4.31054688 L126.394906,4.31054688 L126.394906,11 L133.011116,11 L133.011116,15.5898438 L126.394906,15.5898438 L126.394906,28.3583984 C126.394906,29.221033 126.606492,29.8761371 127.029671,30.3237305 C127.45285,30.7713239 128.144575,30.9951172 129.104866,30.9951172 C129.772187,30.9951172 130.382533,30.9625654 130.935921,30.8974609 C131.489309,30.8323564 132.164758,30.7347012 132.962288,30.6044922 L132.962288,35.5605469 C131.416057,36.0162783 129.853572,36.2441406 128.274788,36.2441406 L128.10389,36.2441406 C125.808957,36.2441406 124.051162,35.6785538 122.830452,34.5473633 C121.609743,33.4161727 120.999398,31.4671362 120.999398,28.7001953 L120.999398,15.5898438 L116.26307,15.5898438 Z M136.664552,23.5976562 C136.664552,21.7584543 136.957517,20.0413491 137.543458,18.4462891 C138.129398,16.851229 138.963537,15.4515034 140.045899,14.2470703 C141.128261,13.0426372 142.446608,12.0986362 144.000977,11.4150391 C145.555347,10.7314419 147.292797,10.3896484 149.21338,10.3896484 C151.150238,10.3896484 152.87955,10.715166 154.401368,11.3662109 C155.923185,12.0172559 157.200842,12.9287051 158.234376,14.1005859 C159.26791,15.2724668 160.049152,16.6640544 160.578126,18.2753906 C161.1071,19.8867268 161.371583,21.6607976 161.371583,23.5976562 L161.371583,25.1601562 L142.18213,25.1601562 L142.18213,25.2089844 C142.312339,26.2832085 142.601236,27.2150026 143.048829,28.0043945 C143.496422,28.7937865 144.062009,29.4488906 144.745606,29.9697266 C145.429203,30.4905625 146.198239,30.8852526 147.052735,31.1538086 C147.907232,31.4223646 148.78206,31.5566406 149.677247,31.5566406 C151.337411,31.5566406 152.785965,31.239261 154.02295,30.6044922 C155.259935,29.9697234 156.30973,29.2047571 157.172364,28.3095703 L159.735841,32.6552734 C158.710445,33.6481169 157.375823,34.5554972 155.731934,35.3774414 C154.088046,36.1993856 152.086113,36.6103516 149.726075,36.6103516 C147.724112,36.6103516 145.91342,36.2929719 144.293946,35.6582031 C142.674472,35.0234343 141.307298,34.128261 140.192384,32.9726562 C139.077469,31.8170515 138.210779,30.4498777 137.592286,28.8710938 C136.973793,27.2923098 136.664552,25.5345149 136.664552,23.5976562 L136.664552,23.5976562 Z M142.230958,21.0585938 L155.46338,21.0585938 C155.300618,19.3333247 154.694342,17.9254612 153.644532,16.8349609 C152.594722,15.7444607 151.085134,15.1992188 149.115723,15.1992188 C147.11376,15.1992188 145.547207,15.7241158 144.416016,16.7739258 C143.284826,17.8237357 142.55648,19.2519441 142.230958,21.0585938 L142.230958,21.0585938 Z M167.344354,36 L167.344354,11 L172.544549,11 L172.544549,14.9550781 C173.309527,13.5227793 174.28608,12.4038126 175.474237,11.5981445 C176.662394,10.7924764 178.135361,10.3896484 179.893182,10.3896484 C180.723264,10.3896484 181.537058,10.4954417 182.334588,10.7070312 L182.334588,16.4443359 C181.895133,16.3466792 181.455684,16.2652998 181.016229,16.2001953 C180.576774,16.1350908 180.104773,16.1025391 179.600213,16.1025391 C177.09369,16.1025391 175.323688,16.8430916 174.290155,18.3242188 C173.256621,19.8053459 172.739862,21.8805205 172.739862,24.5498047 L172.739862,36 L167.344354,36 Z M184.474351,43.6904297 L193.409898,27.6015625 L197.706773,29.9941406 L188.771226,46.0097656 L184.474351,43.6904297 Z M217.73337,31.5566406 L221.444308,27.9921875 C222.209285,29.2942773 223.283493,30.2382783 224.666964,30.8242188 C226.050434,31.4101592 227.555953,31.703125 229.183565,31.703125 C230.453103,31.703125 231.486621,31.4956075 232.284151,31.0805664 C233.081681,30.6655253 233.48044,29.9697314 233.48044,28.9931641 C233.48044,28.0328728 233.032854,27.3614928 232.137667,26.9790039 C231.24248,26.596515 229.842755,26.201825 227.938448,25.7949219 C226.978157,25.5996084 225.969052,25.3432633 224.911105,25.0258789 C223.853157,24.7084945 222.89288,24.2649768 222.030245,23.6953125 C221.167611,23.1256482 220.45961,22.3850957 219.906222,21.4736328 C219.352834,20.5621699 219.076144,19.4228584 219.076144,18.0556641 C219.076144,15.6956262 219.942834,13.8279691 221.676241,12.4526367 C223.409648,11.0773043 225.846961,10.3896484 228.988253,10.3896484 C231.380843,10.3896484 233.378707,10.8006144 234.981905,11.6225586 C236.585103,12.4445028 237.899381,13.5553315 238.924776,14.9550781 L235.287081,18.4462891 C234.684865,17.5511023 233.826312,16.8105498 232.711397,16.2246094 C231.596483,15.6386689 230.257792,15.3457031 228.695284,15.3457031 C227.458299,15.3457031 226.46547,15.5613585 225.716769,15.9926758 C224.968067,16.423993 224.593722,17.0302695 224.593722,17.8115234 C224.593722,18.7392625 225.086067,19.3862286 226.070772,19.7524414 C227.055478,20.1186542 228.524376,20.5214822 230.477511,20.9609375 C231.551735,21.1888032 232.59746,21.4614242 233.614718,21.7788086 C234.631975,22.096193 235.539356,22.5356417 236.336886,23.097168 C237.134416,23.6586942 237.777313,24.3829708 238.265597,25.2700195 C238.75388,26.1570682 238.998019,27.2841729 238.998019,28.6513672 C238.998019,30.0185615 238.745742,31.2026317 238.241183,32.2036133 C237.736623,33.2045948 237.044898,34.0305957 236.165987,34.6816406 C235.287077,35.3326855 234.221007,35.8168929 232.967745,36.1342773 C231.714484,36.4516617 230.339172,36.6103516 228.841769,36.6103516 C226.449178,36.6103516 224.268211,36.2075236 222.2988,35.4018555 C220.329389,34.5961874 218.807594,33.3144619 217.73337,31.5566406 L217.73337,31.5566406 Z M243.994227,3.79785156 C243.994227,2.72362744 244.360434,1.82031616 245.09286,1.08789062 C245.825285,0.355465088 246.728597,-0.0107421875 247.802821,-0.0107421875 C248.877045,-0.0107421875 249.780356,0.359534058 250.512782,1.10009766 C251.245207,1.84066125 251.611415,2.73990356 251.611415,3.79785156 C251.611415,4.87207568 251.241138,5.77538696 250.500575,6.5078125 C249.760011,7.24023804 248.860769,7.60644531 247.802821,7.60644531 C246.728597,7.60644531 245.825285,7.24023804 245.09286,6.5078125 C244.360434,5.77538696 243.994227,4.87207568 243.994227,3.79785156 L243.994227,3.79785156 Z M245.09286,36 L245.09286,11 L250.512782,11 L250.512782,36 L245.09286,36 Z M258.756061,36 L258.756061,11 L264.005084,11 L264.005084,14.5400391 C264.770062,13.3030537 265.795442,12.3020872 267.081256,11.5371094 C268.36707,10.7721316 269.962106,10.3896484 271.866412,10.3896484 C273.868375,10.3896484 275.532584,10.8168903 276.859088,11.6713867 C278.185592,12.5258832 279.18249,13.7018154 279.849811,15.1992188 C280.712445,13.7994722 281.855826,12.6479537 283.279986,11.7446289 C284.704147,10.8413041 286.531115,10.3896484 288.760943,10.3896484 C291.96734,10.3896484 294.359894,11.3662012 295.938678,13.3193359 C297.517462,15.2724707 298.306842,17.9010251 298.306842,21.2050781 L298.306842,36 L292.862506,36 L292.862506,21.5957031 C292.862506,19.59374 292.427126,18.0760143 291.556354,17.0424805 C290.685581,16.0089467 289.38758,15.4921875 287.662311,15.4921875 C286.425325,15.4921875 285.399945,15.7200498 284.586139,16.1757812 C283.772333,16.6315127 283.11316,17.2418582 282.6086,18.0068359 C282.10404,18.7718137 281.745971,19.6873319 281.534381,20.753418 C281.322791,21.819504 281.216998,22.9710225 281.216998,24.2080078 L281.216998,36 L275.797076,36 L275.797076,21.5957031 C275.797076,19.59374 275.357628,18.0760143 274.478717,17.0424805 C273.599806,16.0089467 272.289598,15.4921875 270.548053,15.4921875 C269.311067,15.4921875 268.285687,15.7200498 267.471881,16.1757812 C266.658075,16.6315127 266.002971,17.2499961 265.506549,18.03125 C265.010127,18.8125039 264.660196,19.7280221 264.456744,20.777832 C264.253293,21.827642 264.151568,22.9710225 264.151568,24.2080078 L264.151568,36 L258.756061,36 Z M306.281566,46.0097656 L306.281566,11 L311.677074,11 L311.677074,14.5400391 C312.604813,13.2705015 313.780745,12.261397 315.204906,11.5126953 C316.629067,10.7639937 318.325827,10.3896484 320.295238,10.3896484 C321.92285,10.3896484 323.444645,10.6907522 324.860668,11.2929688 C326.27669,11.8951853 327.509588,12.7537379 328.559398,13.8686523 C329.609208,14.9835668 330.443347,16.3588785 331.06184,17.9946289 C331.680332,19.6303793 331.989574,21.4654846 331.989574,23.5 C331.989574,25.5670676 331.680332,27.4103109 331.06184,29.0297852 C330.443347,30.6492594 329.609208,32.0245712 328.559398,33.1557617 C327.509588,34.2869523 326.27669,35.1455049 324.860668,35.7314453 C323.444645,36.3173857 321.939126,36.6103516 320.344066,36.6103516 C318.342103,36.6103516 316.641274,36.2075236 315.241527,35.4018555 C313.84178,34.5961874 312.653641,33.5992898 311.677074,32.4111328 L311.677074,46.0097656 L306.281566,46.0097656 Z M311.432933,23.5 C311.432933,25.9414185 312.124658,27.878248 313.508129,29.3105469 C314.891599,30.7428457 316.698222,31.4589844 318.92805,31.4589844 C321.190432,31.4589844 323.005192,30.7225009 324.372386,29.2495117 C325.739581,27.7765226 326.423168,25.8600378 326.423168,23.5 C326.423168,21.1399622 325.739581,19.2234774 324.372386,17.7504883 C323.005192,16.2774991 321.190432,15.5410156 318.92805,15.5410156 C316.698222,15.5410156 314.891599,16.2571543 313.508129,17.6894531 C312.124658,19.121752 311.432933,21.0585815 311.432933,23.5 L311.432933,23.5 Z M338.157657,36 L338.157657,0.990234375 L343.650822,0.990234375 L343.650822,36 L338.157657,36 Z M349.818905,23.5976562 C349.818905,21.7584543 350.111871,20.0413491 350.697811,18.4462891 C351.283752,16.851229 352.117891,15.4515034 353.200253,14.2470703 C354.282615,13.0426372 355.600961,12.0986362 357.155331,11.4150391 C358.709701,10.7314419 360.447151,10.3896484 362.367733,10.3896484 C364.304592,10.3896484 366.033904,10.715166 367.555721,11.3662109 C369.077539,12.0172559 370.355195,12.9287051 371.388729,14.1005859 C372.422263,15.2724668 373.203505,16.6640544 373.732479,18.2753906 C374.261453,19.8867268 374.525936,21.6607976 374.525936,23.5976562 L374.525936,25.1601562 L355.336483,25.1601562 L355.336483,25.2089844 C355.466692,26.2832085 355.755589,27.2150026 356.203182,28.0043945 C356.650776,28.7937865 357.216363,29.4488906 357.89996,29.9697266 C358.583557,30.4905625 359.352592,30.8852526 360.207089,31.1538086 C361.061585,31.4223646 361.936414,31.5566406 362.8316,31.5566406 C364.491765,31.5566406 365.940318,31.239261 367.177303,30.6044922 C368.414289,29.9697234 369.464083,29.2047571 370.326718,28.3095703 L372.890194,32.6552734 C371.864798,33.6481169 370.530176,34.5554972 368.886288,35.3774414 C367.242399,36.1993856 365.240466,36.6103516 362.880428,36.6103516 C360.878465,36.6103516 359.067774,36.2929719 357.4483,35.6582031 C355.828825,35.0234343 354.461652,34.128261 353.346737,32.9726562 C352.231823,31.8170515 351.365132,30.4498777 350.746639,28.8710938 C350.128147,27.2923098 349.818905,25.5345149 349.818905,23.5976562 L349.818905,23.5976562 Z M355.385311,21.0585938 L368.617733,21.0585938 C368.454972,19.3333247 367.848695,17.9254612 366.798886,16.8349609 C365.749076,15.7444607 364.239488,15.1992188 362.270077,15.1992188 C360.268114,15.1992188 358.70156,15.7241158 357.57037,16.7739258 C356.439179,17.8237357 355.710834,19.2519441 355.385311,21.0585938 L355.385311,21.0585938 Z M380.498707,36 L380.498707,11 L385.698903,11 L385.698903,14.9550781 C386.46388,13.5227793 387.440433,12.4038126 388.62859,11.5981445 C389.816747,10.7924764 391.289714,10.3896484 393.047535,10.3896484 C393.877618,10.3896484 394.691412,10.4954417 395.488942,10.7070312 L395.488942,16.4443359 C395.049486,16.3466792 394.610038,16.2652998 394.170582,16.2001953 C393.731127,16.1350908 393.259127,16.1025391 392.754567,16.1025391 C390.248044,16.1025391 388.478042,16.8430916 387.444508,18.3242188 C386.410974,19.8053459 385.894215,21.8805205 385.894215,24.5498047 L385.894215,36 L380.498707,36 Z M416.833898,36 L416.833898,11 L422.082921,11 L422.082921,14.4423828 C423.01066,13.140293 424.174386,12.1393264 425.574132,11.4394531 C426.973879,10.7395798 428.544501,10.3896484 430.286046,10.3896484 C431.816002,10.3896484 433.158762,10.6419246 434.314367,11.1464844 C435.469971,11.6510442 436.42211,12.3631139 437.170812,13.2827148 C437.919514,14.2023158 438.476962,15.3009376 438.843175,16.5786133 C439.209388,17.8562889 439.392492,19.3007732 439.392492,20.9121094 L439.392492,36 L433.874914,36 L433.874914,21.5957031 C433.874914,19.5286355 433.402913,17.9946339 432.458898,16.9936523 C431.514883,15.9926708 430.237226,15.4921875 428.62589,15.4921875 C427.421457,15.4921875 426.412352,15.7119119 425.598546,16.1513672 C424.78474,16.5908225 424.129636,17.19303 423.633214,17.9580078 C423.136793,18.7229856 422.778723,19.6385038 422.558996,20.7045898 C422.339268,21.7706759 422.229406,22.9384702 422.229406,24.2080078 L422.229406,36 L416.833898,36 Z M445.633817,23.5976562 C445.633817,21.7584543 445.926783,20.0413491 446.512724,18.4462891 C447.098664,16.851229 447.932803,15.4515034 449.015165,14.2470703 C450.097527,13.0426372 451.415873,12.0986362 452.970243,11.4150391 C454.524613,10.7314419 456.262063,10.3896484 458.182645,10.3896484 C460.119504,10.3896484 461.848816,10.715166 463.370634,11.3662109 C464.892451,12.0172559 466.170108,12.9287051 467.203642,14.1005859 C468.237175,15.2724668 469.018418,16.6640544 469.547392,18.2753906 C470.076366,19.8867268 470.340849,21.6607976 470.340849,23.5976562 L470.340849,25.1601562 L451.151395,25.1601562 L451.151395,25.2089844 C451.281604,26.2832085 451.570501,27.2150026 452.018095,28.0043945 C452.465688,28.7937865 453.031275,29.4488906 453.714872,29.9697266 C454.398469,30.4905625 455.167505,30.8852526 456.022001,31.1538086 C456.876497,31.4223646 457.751326,31.5566406 458.646513,31.5566406 C460.306677,31.5566406 461.75523,31.239261 462.992216,30.6044922 C464.229201,29.9697234 465.278995,29.2047571 466.14163,28.3095703 L468.705106,32.6552734 C467.679711,33.6481169 466.345089,34.5554972 464.7012,35.3774414 C463.057312,36.1993856 461.055379,36.6103516 458.695341,36.6103516 C456.693378,36.6103516 454.882686,36.2929719 453.263212,35.6582031 C451.643738,35.0234343 450.276564,34.128261 449.161649,32.9726562 C448.046735,31.8170515 447.180044,30.4498777 446.561552,28.8710938 C445.943059,27.2923098 445.633817,25.5345149 445.633817,23.5976562 L445.633817,23.5976562 Z M451.200224,21.0585938 L464.432645,21.0585938 C464.269884,19.3333247 463.663608,17.9254612 462.613798,16.8349609 C461.563988,15.7444607 460.0544,15.1992188 458.084989,15.1992188 C456.083026,15.1992188 454.516473,15.7241158 453.385282,16.7739258 C452.254092,17.8237357 451.525746,19.2519441 451.200224,21.0585938 L451.200224,21.0585938 Z M472.065573,11 L478.071432,11 L484.419088,27.796875 L491.27944,11 L495.429831,11 L502.265768,27.796875 L508.613424,11 L514.619284,11 L504.414206,36 L500.312643,36 L493.330221,19.5449219 L486.372213,36 L482.270651,36 L472.065573,11 Z M516.344008,31.5566406 L520.054945,27.9921875 C520.819923,29.2942773 521.894131,30.2382783 523.277602,30.8242188 C524.661072,31.4101592 526.166591,31.703125 527.794203,31.703125 C529.063741,31.703125 530.097259,31.4956075 530.894789,31.0805664 C531.692319,30.6655253 532.091078,29.9697314 532.091078,28.9931641 C532.091078,28.0328728 531.643492,27.3614928 530.748305,26.9790039 C529.853118,26.596515 528.453392,26.201825 526.549086,25.7949219 C525.588795,25.5996084 524.57969,25.3432633 523.521742,25.0258789 C522.463794,24.7084945 521.503517,24.2649768 520.640883,23.6953125 C519.778248,23.1256482 519.070248,22.3850957 518.516859,21.4736328 C517.963471,20.5621699 517.686781,19.4228584 517.686781,18.0556641 C517.686781,15.6956262 518.553472,13.8279691 520.286879,12.4526367 C522.020286,11.0773043 524.457599,10.3896484 527.598891,10.3896484 C529.991481,10.3896484 531.989345,10.8006144 533.592543,11.6225586 C535.195741,12.4445028 536.510018,13.5553315 537.535414,14.9550781 L533.897719,18.4462891 C533.295502,17.5511023 532.43695,16.8105498 531.322035,16.2246094 C530.207121,15.6386689 528.86843,15.3457031 527.305922,15.3457031 C526.068937,15.3457031 525.076108,15.5613585 524.327406,15.9926758 C523.578705,16.423993 523.204359,17.0302695 523.204359,17.8115234 C523.204359,18.7392625 523.696705,19.3862286 524.68141,19.7524414 C525.666116,20.1186542 527.135014,20.5214822 529.088149,20.9609375 C530.162373,21.1888032 531.208098,21.4614242 532.225356,21.7788086 C533.242613,22.096193 534.149994,22.5356417 534.947524,23.097168 C535.745054,23.6586942 536.387951,24.3829708 536.876234,25.2700195 C537.364518,26.1570682 537.608656,27.2841729 537.608656,28.6513672 C537.608656,30.0185615 537.35638,31.2026317 536.85182,32.2036133 C536.347261,33.2045948 535.655536,34.0305957 534.776625,34.6816406 C533.897714,35.3326855 532.831644,35.8168929 531.578383,36.1342773 C530.325121,36.4516617 528.94981,36.6103516 527.452406,36.6103516 C525.059816,36.6103516 522.878848,36.2075236 520.909438,35.4018555 C518.940027,34.5961874 517.418232,33.3144619 516.344008,31.5566406 L516.344008,31.5566406 Z M558.978027,36 L558.978027,11 L564.178222,11 L564.178222,14.9550781 C564.9432,13.5227793 565.919752,12.4038126 567.107909,11.5981445 C568.296066,10.7924764 569.769033,10.3896484 571.526855,10.3896484 C572.356937,10.3896484 573.170731,10.4954417 573.968261,10.7070312 L573.968261,16.4443359 C573.528806,16.3466792 573.089357,16.2652998 572.649902,16.2001953 C572.210446,16.1350908 571.738446,16.1025391 571.233886,16.1025391 C568.727363,16.1025391 566.957361,16.8430916 565.923827,18.3242188 C564.890294,19.8053459 564.373534,21.8805205 564.373534,24.5498047 L564.373534,36 L558.978027,36 Z M576.303337,23.5976562 C576.303337,21.7584543 576.596303,20.0413491 577.182243,18.4462891 C577.768183,16.851229 578.602322,15.4515034 579.684684,14.2470703 C580.767047,13.0426372 582.085393,12.0986362 583.639762,11.4150391 C585.194132,10.7314419 586.931582,10.3896484 588.852165,10.3896484 C590.789023,10.3896484 592.518336,10.715166 594.040153,11.3662109 C595.561971,12.0172559 596.839627,12.9287051 597.873161,14.1005859 C598.906695,15.2724668 599.687937,16.6640544 600.216911,18.2753906 C600.745885,19.8867268 601.010368,21.6607976 601.010368,23.5976562 L601.010368,25.1601562 L581.820915,25.1601562 L581.820915,25.2089844 C581.951124,26.2832085 582.240021,27.2150026 582.687614,28.0043945 C583.135207,28.7937865 583.700794,29.4488906 584.384391,29.9697266 C585.067989,30.4905625 585.837024,30.8852526 586.69152,31.1538086 C587.546017,31.4223646 588.420845,31.5566406 589.316032,31.5566406 C590.976197,31.5566406 592.42475,31.239261 593.661735,30.6044922 C594.89872,29.9697234 595.948515,29.2047571 596.811149,28.3095703 L599.374626,32.6552734 C598.34923,33.6481169 597.014608,34.5554972 595.370719,35.3774414 C593.726831,36.1993856 591.724898,36.6103516 589.36486,36.6103516 C587.362897,36.6103516 585.552205,36.2929719 583.932731,35.6582031 C582.313257,35.0234343 580.946083,34.128261 579.831169,32.9726562 C578.716254,31.8170515 577.849564,30.4498777 577.231071,28.8710938 C576.612578,27.2923098 576.303337,25.5345149 576.303337,23.5976562 L576.303337,23.5976562 Z M581.869743,21.0585938 L595.102165,21.0585938 C594.939404,19.3333247 594.333127,17.9254612 593.283317,16.8349609 C592.233507,15.7444607 590.723919,15.1992188 588.754509,15.1992188 C586.752545,15.1992188 585.185992,15.7241158 584.054802,16.7739258 C582.923611,17.8237357 582.195265,19.2519441 581.869743,21.0585938 L581.869743,21.0585938 Z M605.689194,28.7490234 C605.689194,26.4540901 606.446022,24.6393296 607.959701,23.3046875 C609.473381,21.9700454 611.385797,21.2050791 613.697006,21.0097656 L620.6306,20.3017578 C621.590891,20.2041011 622.079168,19.8216179 622.095444,19.1542969 L622.095444,18.5927734 C622.095444,17.6324822 621.684478,16.8431021 620.862534,16.2246094 C620.040589,15.6061167 618.799554,15.296875 617.139389,15.296875 C615.609433,15.296875 614.258535,15.5898408 613.086655,16.1757812 C611.914774,16.7617217 611.149807,17.7545503 610.791733,19.1542969 L606.44603,16.3955078 C607.080798,14.5237537 608.268938,13.0548556 610.010483,11.9887695 C611.752028,10.9226835 614.095754,10.3896484 617.041733,10.3896484 C620.573651,10.3896484 623.198137,11.2075114 624.915268,12.8432617 C626.632399,14.4790121 627.490951,16.916325 627.490951,20.1552734 L627.490951,36 L622.095444,36 L622.095444,32.5576172 C621.330466,33.729498 620.28881,34.677568 618.970444,35.4018555 C617.652078,36.1261429 616.040766,36.4882812 614.136459,36.4882812 C612.834369,36.4882812 611.658437,36.2970397 610.608627,35.9145508 C609.558817,35.5320619 608.675851,34.9990269 607.959701,34.3154297 C607.243552,33.6318325 606.686103,32.8180386 606.287338,31.8740234 C605.888573,30.9300083 605.689194,29.8883521 605.689194,28.7490234 L605.689194,28.7490234 Z M611.280014,28.6025391 C611.280014,29.5628303 611.621807,30.3359346 612.305405,30.921875 C612.989002,31.5078154 614.014382,31.8007812 615.381576,31.8007812 C616.406972,31.8007812 617.338766,31.6339535 618.176987,31.300293 C619.015207,30.9666324 619.719139,30.5231147 620.288803,29.9697266 C620.858467,29.4163384 621.301985,28.7815791 621.619369,28.0654297 C621.936754,27.3492803 622.095444,26.6250037 622.095444,25.8925781 L622.095444,24.4521484 L614.893295,25.3554688 C613.65631,25.51823 612.744861,25.8925752 612.15892,26.4785156 C611.57298,27.0644561 611.280014,27.7724568 611.280014,28.6025391 L611.280014,28.6025391 Z M632.951027,23.5 C632.951027,21.4329324 633.260269,19.5896891 633.878762,17.9702148 C634.497254,16.3507406 635.331393,14.9754288 636.381203,13.8442383 C637.431013,12.7130477 638.663911,11.8544951 640.079933,11.2685547 C641.495956,10.6826143 643.009613,10.3896484 644.620949,10.3896484 C646.622912,10.3896484 648.319673,10.7924764 649.711281,11.5981445 C651.10289,12.4038126 652.28696,13.4007102 653.263527,14.5888672 L653.263527,0.990234375 L658.659035,0.990234375 L658.659035,36 L653.263527,36 L653.263527,32.4599609 C652.335788,33.7294985 651.159856,34.738603 649.735695,35.4873047 C648.311534,36.2360063 646.622912,36.6103516 644.669777,36.6103516 C643.042165,36.6103516 641.516301,36.3092478 640.09214,35.7070312 C638.66798,35.1048147 637.431013,34.2462621 636.381203,33.1313477 C635.331393,32.0164332 634.497254,30.6492594 633.878762,29.0297852 C633.260269,27.4103109 632.951027,25.5670676 632.951027,23.5 L632.951027,23.5 Z M638.517433,23.5 C638.517433,25.8600378 639.20102,27.7765226 640.568215,29.2495117 C641.935409,30.7225009 643.75017,31.4589844 646.012551,31.4589844 C648.24238,31.4589844 650.049002,30.7428457 651.432473,29.3105469 C652.815943,27.878248 653.507668,25.9414185 653.507668,23.5 C653.507668,21.0585815 652.815943,19.121752 651.432473,17.6894531 C650.049002,16.2571543 648.24238,15.5410156 646.012551,15.5410156 C643.75017,15.5410156 641.935409,16.2774991 640.568215,17.7504883 C639.20102,19.2234774 638.517433,21.1399622 638.517433,23.5 L638.517433,23.5 Z M664.827119,23.5976562 C664.827119,21.7584543 665.120084,20.0413491 665.706025,18.4462891 C666.291965,16.851229 667.126104,15.4515034 668.208466,14.2470703 C669.290828,13.0426372 670.609175,12.0986362 672.163544,11.4150391 C673.717914,10.7314419 675.455364,10.3896484 677.375947,10.3896484 C679.312805,10.3896484 681.042117,10.715166 682.563935,11.3662109 C684.085752,12.0172559 685.363409,12.9287051 686.396943,14.1005859 C687.430477,15.2724668 688.211719,16.6640544 688.740693,18.2753906 C689.269667,19.8867268 689.53415,21.6607976 689.53415,23.5976562 L689.53415,25.1601562 L670.344697,25.1601562 L670.344697,25.2089844 C670.474906,26.2832085 670.763803,27.2150026 671.211396,28.0043945 C671.658989,28.7937865 672.224576,29.4488906 672.908173,29.9697266 C673.59177,30.4905625 674.360806,30.8852526 675.215302,31.1538086 C676.069799,31.4223646 676.944627,31.5566406 677.839814,31.5566406 C679.499978,31.5566406 680.948532,31.239261 682.185517,30.6044922 C683.422502,29.9697234 684.472297,29.2047571 685.334931,28.3095703 L687.898408,32.6552734 C686.873012,33.6481169 685.53839,34.5554972 683.894501,35.3774414 C682.250613,36.1993856 680.24868,36.6103516 677.888642,36.6103516 C675.886679,36.6103516 674.075987,36.2929719 672.456513,35.6582031 C670.837039,35.0234343 669.469865,34.128261 668.354951,32.9726562 C667.240036,31.8170515 666.373346,30.4498777 665.754853,28.8710938 C665.13636,27.2923098 664.827119,25.5345149 664.827119,23.5976562 L664.827119,23.5976562 Z M670.393525,21.0585938 L683.625947,21.0585938 C683.463185,19.3333247 682.856909,17.9254612 681.807099,16.8349609 C680.757289,15.7444607 679.247701,15.1992188 677.27829,15.1992188 C675.276327,15.1992188 673.709774,15.7241158 672.578583,16.7739258 C671.447393,17.8237357 670.719047,19.2519441 670.393525,21.0585938 L670.393525,21.0585938 Z M695.506921,36 L695.506921,11 L700.707116,11 L700.707116,14.9550781 C701.472094,13.5227793 702.448647,12.4038126 703.636804,11.5981445 C704.824961,10.7924764 706.297928,10.3896484 708.055749,10.3896484 C708.885831,10.3896484 709.699625,10.4954417 710.497155,10.7070312 L710.497155,16.4443359 C710.0577,16.3466792 709.618251,16.2652998 709.178796,16.2001953 C708.739341,16.1350908 708.26734,16.1025391 707.76278,16.1025391 C705.256257,16.1025391 703.486255,16.8430916 702.452722,18.3242188 C701.419188,19.8053459 700.902429,21.8805205 700.902429,24.5498047 L700.902429,36 L695.506921,36 Z" id="a-faster,-simpler-ne" fill="#000000"></path>
    </g>
</svg>