<?xml version="1.0" encoding="UTF-8" standalone="no"?>
<svg width="134px" height="58px" viewBox="0 0 134 58" version="1.1" xmlns="http://www.w3.org/2000/svg" xmlns:xlink="http://www.w3.org/1999/xlink">
    <!-- Generator: Sketch 39.1 (31720) - http://www.bohemiancoding.com/sketch -->
    <title>try</title>
    <desc>Created with Sketch.</desc>
    <defs></defs>
    <g id="Page-2" stroke="none" stroke-width="1" fill="none" fill-rule="evenodd">
        <polygon id="Rectangle" fill="#000000" points="0 10 124 0 134 58 10 58"></polygon>
        <path d="M39.5353761,29.0195312 L39.5353761,27 L41.6193605,27 L41.6193605,24.0566406 L43.9933839,24.0566406 L43.9933839,27 L46.9045168,27 L46.9045168,29.0195312 L43.9933839,29.0195312 L43.9933839,34.6376953 C43.9933839,35.0172545 44.086482,35.3055003 44.2726808,35.5024414 C44.4588797,35.6993825 44.7632386,35.7978516 45.1857668,35.7978516 C45.479388,35.7978516 45.74794,35.7835288 45.9914308,35.7548828 C46.2349216,35.7262368 46.5321192,35.6832685 46.8830324,35.6259766 L46.8830324,37.8066406 C46.2026904,38.0071625 45.5151973,38.1074219 44.8205324,38.1074219 L44.7453371,38.1074219 C43.7355664,38.1074219 42.9621366,37.8585637 42.4250246,37.3608398 C41.8879125,36.863116 41.6193605,36.0055399 41.6193605,34.7880859 L41.6193605,29.0195312 L39.5353761,29.0195312 Z M49.6184734,38 L49.6184734,27 L51.9065593,27 L51.9065593,28.7402344 C52.2431496,28.1100229 52.6728328,27.6176776 53.1956218,27.2631836 C53.7184109,26.9086896 54.3665164,26.7314453 55.1399578,26.7314453 C55.505194,26.7314453 55.8632633,26.7779943 56.2141765,26.8710938 L56.2141765,29.3955078 C56.0208162,29.3525388 55.8274588,29.3167319 55.6340984,29.2880859 C55.4407381,29.25944 55.2330579,29.2451172 55.0110515,29.2451172 C53.9081814,29.2451172 53.1293806,29.5709603 52.6746258,30.2226562 C52.2198709,30.8743522 51.9924968,31.787429 51.9924968,32.9619141 L51.9924968,38 L49.6184734,38 Z M57.3060629,27 L60.120516,27 L63.2894613,33.7353516 L66.3724691,27 L68.8968832,27 L61.8607504,42.4042969 L59.3363363,42.4042969 L62.0433676,36.4853516 L57.3060629,27 Z M77.1929606,34.8095703 C77.1929606,33.7997996 77.525965,33.001305 78.191984,32.4140625 C78.858003,31.82682 79.6994659,31.4902348 80.7163981,31.4042969 L83.7671793,31.0927734 C84.1897075,31.0498045 84.4045491,30.8815119 84.4117106,30.5878906 L84.4117106,30.3408203 C84.4117106,29.9182922 84.2308855,29.5709649 83.8692301,29.2988281 C83.5075746,29.0266913 82.9615189,28.890625 82.2310465,28.890625 C81.557866,28.890625 80.963471,29.01953 80.4478434,29.2773438 C79.9322158,29.5351575 79.5956306,29.9720021 79.4380777,30.5878906 L77.5259684,29.3740234 C77.8052666,28.5504516 78.3280479,27.9041365 79.0943277,27.4350586 C79.8606076,26.9659807 80.8918473,26.7314453 82.1880777,26.7314453 C83.742122,26.7314453 84.8968956,27.091305 85.6524332,27.8110352 C86.4079708,28.5307653 86.785734,29.603183 86.785734,31.0283203 L86.785734,38 L84.4117106,38 L84.4117106,36.4853516 C84.0751203,37.0009791 83.6167916,37.4181299 83.0367106,37.7368164 C82.4566295,38.0555029 81.7476522,38.2148438 80.9097574,38.2148438 C80.3368379,38.2148438 79.8194277,38.1306975 79.3575113,37.9624023 C78.895595,37.7941072 78.5070897,37.5595718 78.191984,37.2587891 C77.8768783,36.9580063 77.6316008,36.599937 77.4561442,36.1845703 C77.2806875,35.7692037 77.1929606,35.3108749 77.1929606,34.8095703 L77.1929606,34.8095703 Z M79.6529215,34.7451172 C79.6529215,35.1676453 79.8033106,35.5078112 80.1040934,35.765625 C80.4048761,36.0234388 80.8560435,36.1523438 81.457609,36.1523438 C81.9087831,36.1523438 82.3187725,36.0789395 82.6875895,35.9321289 C83.0564064,35.7853183 83.3661364,35.5901705 83.6167887,35.3466797 C83.867441,35.1031889 84.0625888,34.8238948 84.2022379,34.5087891 C84.341887,34.1936833 84.4117106,33.8750016 84.4117106,33.5527344 L84.4117106,32.9189453 L81.2427652,33.3164062 C80.6984917,33.3880212 80.297454,33.5527331 80.0396402,33.8105469 C79.7818265,34.0683607 79.6529215,34.379881 79.6529215,34.7451172 L79.6529215,34.7451172 Z M89.2741047,27.9023438 L94.6237141,22.5957031 L96.8258625,22.5957031 L96.8258625,38 L94.3121907,38 L94.3121907,26.4091797 L91.0143391,29.6855469 L89.2741047,27.9023438 Z" id="try-a1" fill="#ECEBEB"></path>
    </g>
</svg>